# xmcd
#
# Track frame offsets:
#	150
#	10664
#	23515
#	37198
#	52110
#	67343
#	79477
#	90200
#	103366
#	112762
#	123364
#	139782
#	149723
#	161617
#	172552
#	183261
#	194774
#	208371
#	218843
#	229705
#	241200
#	251967
#	263418
#	274626
#	289370
#
# Disc length: 4110 seconds
#
# Revision: 1
# Processed by: cddbd v1.5.2PL0 Copyright (c) Steve Scherf et al.
# Submitted via: audiograbber 1.83.01
#
DISCID=75100c19
DTITLE=Various Artist - The Yellow Rose of Texas - CD 1 Ring of Fire
DYEAR=2008
DGENRE=Country
TTITLE0=The Buchanans - On the road again
TTITLE1=Laura Lee/The young wordl singers/John Gregory&TheOrchestra Unlimited /
TTITLE1=9 to 5
TTITLE2=The Kendalls - Heartaches by the number
TTITLE3=Roger Miller - Me and Bobby McGee
TTITLE4=Billi Jo Spears - Blanket on the ground
TTITLE5=Waylon Jennings - Don´t think twice, it´s alright
TTITLE6=Patsy Cline - Honky tonk merry go round
TTITLE7=Conway Twitty - Danny Boy
TTITLE8=Billy Troy - Cotton Eyed Joe
TTITLE9=The Kendalls - You´d make an angel wont to cheat
TTITLE10=Merle Haggard - Ramblin´ Fever
TTITLE11=Patsy Cline - Turn the cards slowly
TTITLE12=Bruce Burell - I walk the line
TTITLE13=Roger Miller - King of the road
TTITLE14=Patsy Cline - Gotta lot of rhythm in my soul
TTITLE15=Mel McDaniel - Stand up
TTITLE16=The Kendalls - Thank god for the radio
TTITLE17=Del Shannon - Honky tonk blues
TTITLE18=Jennifer Weatherly - The yellow rose of Texas
TTITLE19=John Brooker - Ring of fire
TTITLE20=Merle Haggard - Old man from the mountain
TTITLE21=Patsy Cline - Crazy dreams
TTITLE22=Pam Gadd - Sittin´ on top of the world
TTITLE23=Dwight Hilton - Detroit City
TTITLE24=John Denver - Rocky Mountain High
EXTD=
EXTT0=
EXTT1=
EXTT2=
EXTT3=
EXTT4=
EXTT5=
EXTT6=
EXTT7=
EXTT8=
EXTT9=
EXTT10=
EXTT11=
EXTT12=
EXTT13=
EXTT14=
EXTT15=
EXTT16=
EXTT17=
EXTT18=
EXTT19=
EXTT20=
EXTT21=
EXTT22=
EXTT23=
EXTT24=
PLAYORDER=
